<svg width="52" height="19" viewBox="0 0 52 19" fill="none" xmlns="http://www.w3.org/2000/svg">
<path d="M0 18.81H18V0.81H0V18.81ZM30.3359 5.436V14.58C30.3359 15.132 30.2459 15.63 30.0659 16.074C29.8859 16.518 29.6279 16.902 29.2919 17.226C28.9679 17.538 28.5659 17.784 28.0859 17.964C27.6179 18.132 27.0959 18.216 26.5199 18.216C25.4279 18.216 24.5639 17.928 23.9279 17.352C23.3039 16.764 22.9079 16.002 22.7399 15.066L24.6119 14.652C24.7199 15.192 24.9239 15.618 25.2239 15.93C25.5359 16.242 25.9679 16.398 26.5199 16.398C27.0599 16.398 27.4919 16.23 27.8159 15.894C28.1399 15.558 28.3019 15.048 28.3019 14.364V7.128H24.1979V5.436H30.3359ZM36.8924 18.216C36.2444 18.216 35.6504 18.102 35.1104 17.874C34.5824 17.646 34.1324 17.322 33.7604 16.902C33.3884 16.47 33.1004 15.954 32.8964 15.354C32.6924 14.742 32.5904 14.064 32.5904 13.32C32.5904 12.576 32.6924 11.904 32.8964 11.304C33.1004 10.692 33.3884 10.176 33.7604 9.756C34.1324 9.324 34.5824 8.994 35.1104 8.766C35.6504 8.538 36.2444 8.424 36.8924 8.424C37.5404 8.424 38.1284 8.538 38.6564 8.766C39.1964 8.994 39.6524 9.324 40.0244 9.756C40.3964 10.176 40.6844 10.692 40.8884 11.304C41.0924 11.904 41.1944 12.576 41.1944 13.32C41.1944 14.064 41.0924 14.742 40.8884 15.354C40.6844 15.954 40.3964 16.47 40.0244 16.902C39.6524 17.322 39.1964 17.646 38.6564 17.874C38.1284 18.102 37.5404 18.216 36.8924 18.216ZM36.8924 16.596C37.5644 16.596 38.1044 16.392 38.5124 15.984C38.9204 15.564 39.1244 14.94 39.1244 14.112V12.528C39.1244 11.7 38.9204 11.082 38.5124 10.674C38.1044 10.254 37.5644 10.044 36.8924 10.044C36.2204 10.044 35.6804 10.254 35.2724 10.674C34.8644 11.082 34.6604 11.7 34.6604 12.528V14.112C34.6604 14.94 34.8644 15.564 35.2724 15.984C35.6804 16.392 36.2204 16.596 36.8924 16.596ZM43.3806 4.68H45.3426V10.188H45.4326C45.6366 9.624 45.9666 9.192 46.4226 8.892C46.8906 8.58 47.4366 8.424 48.0606 8.424C49.2486 8.424 50.1666 8.856 50.8146 9.72C51.4626 10.572 51.7866 11.772 51.7866 13.32C51.7866 14.868 51.4626 16.074 50.8146 16.938C50.1666 17.79 49.2486 18.216 48.0606 18.216C47.4366 18.216 46.8906 18.06 46.4226 17.748C45.9666 17.436 45.6366 17.004 45.4326 16.452H45.3426V18H43.3806V4.68ZM47.4666 16.524C48.1506 16.524 48.6966 16.308 49.1046 15.876C49.5126 15.432 49.7166 14.85 49.7166 14.13V12.51C49.7166 11.79 49.5126 11.214 49.1046 10.782C48.6966 10.338 48.1506 10.116 47.4666 10.116C46.8666 10.116 46.3626 10.266 45.9546 10.566C45.5466 10.854 45.3426 11.238 45.3426 11.718V14.922C45.3426 15.402 45.5466 15.792 45.9546 16.092C46.3626 16.38 46.8666 16.524 47.4666 16.524Z" fill="black"/>
</svg>
