<svg width="104" height="19" viewBox="0 0 104 19" fill="none" xmlns="http://www.w3.org/2000/svg">
<path d="M0 18.81H18V0.81H0V18.81ZM31.8479 18V16.2H25.8359V12.528H31.2899V10.728H25.8359V7.236H31.8479V5.436H23.8019V18H31.8479ZM40.038 18H42V4.68H40.038V10.188H39.948C39.552 9.072 38.562 8.424 37.32 8.424C34.962 8.424 33.594 10.242 33.594 13.32C33.594 16.398 34.962 18.216 37.32 18.216C38.562 18.216 39.552 17.55 39.948 16.452H40.038V18ZM37.914 16.524C36.564 16.524 35.664 15.57 35.664 14.13V12.51C35.664 11.07 36.564 10.116 37.914 10.116C39.102 10.116 40.038 10.764 40.038 11.718V14.922C40.038 15.876 39.102 16.524 37.914 16.524ZM50.4744 18H52.4364V8.64H50.4744V14.904C50.4744 16.002 49.4844 16.524 48.4764 16.524C47.2704 16.524 46.6764 15.768 46.6764 14.346V8.64H44.7144V14.598C44.7144 16.902 45.8484 18.216 47.7744 18.216C49.3224 18.216 50.0604 17.37 50.4024 16.452H50.4744V18ZM58.8638 18.216C60.6638 18.216 61.9418 17.37 62.5538 15.84L61.0598 15.048C60.6638 15.984 59.9978 16.596 58.8638 16.596C57.4238 16.596 56.6858 15.606 56.6858 14.166V12.492C56.6858 11.052 57.4238 10.062 58.8638 10.062C59.9258 10.062 60.5918 10.62 60.8618 11.484L62.4818 10.728C61.9238 9.342 60.7358 8.424 58.8638 8.424C56.1638 8.424 54.6158 10.332 54.6158 13.32C54.6158 16.308 56.1638 18.216 58.8638 18.216ZM72.3776 18V16.398H71.3876V11.7C71.3876 9.612 70.0376 8.424 67.6256 8.424C65.8076 8.424 64.7096 9.198 64.0976 10.242L65.2676 11.304C65.7356 10.566 66.4016 10.026 67.4996 10.026C68.8136 10.026 69.4256 10.692 69.4256 11.826V12.618H67.7336C65.1236 12.618 63.7376 13.572 63.7376 15.426C63.7376 17.118 64.8356 18.216 66.7616 18.216C68.1296 18.216 69.1376 17.604 69.4976 16.434H69.5876C69.7136 17.352 70.2536 18 71.2796 18H72.3776ZM67.3196 16.722C66.3476 16.722 65.7356 16.29 65.7356 15.462V15.138C65.7356 14.328 66.4016 13.878 67.7696 13.878H69.4256V15.228C69.4256 16.146 68.5256 16.722 67.3196 16.722ZM78.5498 18V16.398H76.7318V10.242H78.6938V8.64H76.7318V6.084H74.9678V7.722C74.9678 8.37 74.7518 8.64 74.1038 8.64H73.3118V10.242H74.7698V15.966C74.7698 17.244 75.4897 18 76.8398 18H78.5498ZM81.812 6.966C82.622 6.966 82.964 6.534 82.964 5.94V5.634C82.964 5.04 82.622 4.608 81.812 4.608C81.002 4.608 80.642 5.04 80.642 5.634V5.94C80.642 6.534 81.002 6.966 81.812 6.966ZM80.822 18H82.784V8.64H80.822V18ZM89.2576 18.216C91.8676 18.216 93.5596 16.308 93.5596 13.32C93.5596 10.332 91.8676 8.424 89.2576 8.424C86.6476 8.424 84.9556 10.332 84.9556 13.32C84.9556 16.308 86.6476 18.216 89.2576 18.216ZM89.2576 16.596C87.9256 16.596 87.0256 15.768 87.0256 14.112V12.528C87.0256 10.872 87.9256 10.044 89.2576 10.044C90.5896 10.044 91.4896 10.872 91.4896 12.528V14.112C91.4896 15.768 90.5896 16.596 89.2576 16.596ZM97.7078 18V11.736C97.7078 10.638 98.7158 10.116 99.7418 10.116C100.948 10.116 101.506 10.854 101.506 12.312V18H103.468V12.06C103.468 9.756 102.334 8.424 100.426 8.424C98.9858 8.424 98.1938 9.18 97.7978 10.188H97.7078V8.64H95.7458V18H97.7078Z" fill="black"/>
</svg>
