<svg width="84" height="22" viewBox="0 0 84 22" fill="none" xmlns="http://www.w3.org/2000/svg">
<path d="M0 18.81H18V0.81H0V18.81ZM23.8019 18H25.7459V8.388H25.8359L26.8259 10.422L29.5799 15.444L32.3339 10.422L33.3239 8.388H33.4139V18H35.3579V5.436H33.0539L29.6879 11.826H29.5799L26.2139 5.436H23.8019V18ZM41.9901 18.216C43.7361 18.216 45.1041 17.46 45.8061 16.326L44.6541 15.192C44.1141 16.056 43.3401 16.596 42.1881 16.596C40.6041 16.596 39.7221 15.57 39.7221 14.13V13.824H46.1481V13.086C46.1481 10.494 44.7441 8.424 41.9901 8.424C39.3261 8.424 37.6881 10.332 37.6881 13.32C37.6881 16.308 39.3261 18.216 41.9901 18.216ZM41.9901 9.954C43.2861 9.954 44.0781 10.908 44.0781 12.348V12.528H39.7221V12.402C39.7221 10.962 40.6401 9.954 41.9901 9.954ZM51.992 18.216C53.738 18.216 55.106 17.46 55.808 16.326L54.656 15.192C54.116 16.056 53.342 16.596 52.19 16.596C50.606 16.596 49.724 15.57 49.724 14.13V13.824H56.15V13.086C56.15 10.494 54.746 8.424 51.992 8.424C49.328 8.424 47.69 10.332 47.69 13.32C47.69 16.308 49.328 18.216 51.992 18.216ZM51.992 9.954C53.288 9.954 54.08 10.908 54.08 12.348V12.528H49.724V12.402C49.724 10.962 50.642 9.954 51.992 9.954ZM62.624 18V16.398H60.806V10.242H62.768V8.64H60.806V6.084H59.042V7.722C59.042 8.37 58.826 8.64 58.178 8.64H57.386V10.242H58.844V15.966C58.844 17.244 59.564 18 60.914 18H62.624ZM70.5662 18H72.5282V8.64H70.5662V14.904C70.5662 16.002 69.5762 16.524 68.5682 16.524C67.3622 16.524 66.7682 15.768 66.7682 14.346V8.64H64.8062V14.598C64.8062 16.902 65.9402 18.216 67.8662 18.216C69.4142 18.216 70.1522 17.37 70.4942 16.452H70.5662V18ZM75.3376 21.6H77.2996V16.452H77.3896C77.7856 17.55 78.7756 18.216 80.0176 18.216C82.3756 18.216 83.7436 16.398 83.7436 13.32C83.7436 10.242 82.3756 8.424 80.0176 8.424C78.7756 8.424 77.7856 9.072 77.3896 10.188H77.2996V8.64H75.3376V21.6ZM79.4236 16.524C78.2356 16.524 77.2996 15.876 77.2996 14.922V11.718C77.2996 10.764 78.2356 10.116 79.4236 10.116C80.7736 10.116 81.6736 11.07 81.6736 12.51V14.13C81.6736 15.57 80.7736 16.524 79.4236 16.524Z" fill="black"/>
</svg>
